# xmcd
#
# Track frame offsets: 
#        150
#        17544
#        38197
#        60186
#        76245
#        94591
#        114672
#        137257
#        149418
#        159433
#        178822
#        192671
#        211427
#
# Disc length: 3050 seconds
#
# Revision: 0
# Processed by: cddbd v1.5.2PL0 Copyright (c) Steve Scherf et al.
# Submitted via: ExactAudioCopy v0.95a5
#
DISCID=a90be80d
DTITLE=Gashouse Annie - He's A Rambler
DYEAR=2004
DGENRE=
TTITLE0=Highs and Lows
TTITLE1=One Man Woman
TTITLE2=Always
TTITLE3=Cajun Cutie
TTITLE4=Just Friends
TTITLE5=Please Please Me
TTITLE6=Golden Years
TTITLE7=No Lovin
TTITLE8=Wacky Jack
TTITLE9=Trust In The Lord
TTITLE10=He's a Rambler
TTITLE11=Breaker Breaker
TTITLE12=Gone
EXTD=
EXTT0=
EXTT1=
EXTT2=
EXTT3=
EXTT4=
EXTT5=
EXTT6=
EXTT7=
EXTT8=
EXTT9=
EXTT10=
EXTT11=
EXTT12=
PLAYORDER=
